<svg width="390" height="276" viewBox="0 0 390 276" fill="none" xmlns="http://www.w3.org/2000/svg">
<path d="M0 37.7266H390V229.338H0V37.7266Z" fill="#3B82F6"/>
<path d="M62 0H322V267.065H62V0Z" fill="#3B82F6" fill-opacity="0.45"/>
<path d="M35.1074 199.863C30.8887 199.863 29.5117 197.93 30.9766 194.062L74.043 80.9473C75.8594 76.2012 78.6133 73.8281 82.3047 73.8281H94.6094C98.3008 73.8281 101.055 76.2012 102.871 80.9473L145.938 194.062C147.402 197.93 146.025 199.863 141.807 199.863H127.832C123.965 199.863 121.27 197.842 119.746 193.799L110.781 170.156H66.1328L57.168 193.799C55.6445 197.842 52.9492 199.863 49.082 199.863H35.1074ZM74.3066 148.359H102.607L91.7969 120.41C90.5078 117.129 89.7168 114.756 89.4238 113.291C89.1895 111.768 88.9258 109.541 88.6328 106.611H88.2812C87.9883 109.541 87.6953 111.768 87.4023 113.291C87.168 114.756 86.4062 117.129 85.1172 120.41L74.3066 148.359ZM147.207 96.3281C142.812 96.3281 140.615 94.4238 140.615 90.6152V79.541C140.615 75.7324 142.812 73.8281 147.207 73.8281H237.558C241.953 73.8281 244.15 75.7324 244.15 79.541V90.6152C244.15 94.4238 241.953 96.3281 237.558 96.3281H205.214V195.029C205.214 198.252 203.75 199.863 200.82 199.863H183.945C181.015 199.863 179.55 198.252 179.55 195.029V96.3281H147.207ZM262.118 96.3281C257.724 96.3281 255.527 94.4238 255.527 90.6152V79.541C255.527 75.7324 257.724 73.8281 262.118 73.8281H352.47C356.864 73.8281 359.062 75.7324 359.062 79.541V90.6152C359.062 94.4238 356.864 96.3281 352.47 96.3281H320.126V195.029C320.126 198.252 318.661 199.863 315.732 199.863H298.857C295.927 199.863 294.462 198.252 294.462 195.029V96.3281H262.118Z" fill="white"/>
</svg>
